<?xml version="1.0" encoding="utf-8"?>
<!-- Generator: Adobe Illustrator 21.1.0, SVG Export Plug-In . SVG Version: 6.00 Build 0)  -->
<svg version="1.1" id="Laag_1" xmlns="http://www.w3.org/2000/svg" xmlns:xlink="http://www.w3.org/1999/xlink" x="0px" y="0px"
	 viewBox="0 0 19.5 16.5" style="enable-background:new 0 0 19.5 16.5;" xml:space="preserve">
<g>
	<path d="M8.3,16.5c-0.4,0-0.8-0.1-1.1-0.4L0.4,9.2C0.2,8.9,0,8.5,0,8.1c0-0.4,0.2-0.8,0.5-1.1l6.8-6.7c0.6-0.6,1.5-0.6,2.1,0
		C10,1,10,2,9.4,2.6L3.6,8.2l5.7,5.7c0.6,0.6,0.6,1.5,0,2.1C9.1,16.3,8.7,16.5,8.3,16.5z"/>
</g>
<g>
	<path d="M18,9.7H1.5C0.7,9.7,0,9,0,8.2s0.7-1.5,1.5-1.5H18c0.8,0,1.5,0.7,1.5,1.5S18.8,9.7,18,9.7z"/>
</g>
</svg>
