<?xml version="1.0" encoding="utf-8"?>
<!-- Generator: Adobe Illustrator 21.1.0, SVG Export Plug-In . SVG Version: 6.00 Build 0)  -->
<!DOCTYPE svg PUBLIC "-//W3C//DTD SVG 1.1//EN" "http://www.w3.org/Graphics/SVG/1.1/DTD/svg11.dtd">
<svg version="1.1" id="Layer_1" xmlns="http://www.w3.org/2000/svg" xmlns:xlink="http://www.w3.org/1999/xlink" x="0px" y="0px"
	 viewBox="0 0 28 28" style="enable-background:new 0 0 28 28;" xml:space="preserve">
<style type="text/css">
	.st0{fill:#FFFFFF;}
	.st1{fill:#EA1C25;}
</style>
<polygon class="st0" points="13,12.6 11.3,16.7 15.4,15 17.1,10.9 "/>
<path class="st1" d="M25.2,11.6L15,3c-0.5-0.4-1.3-0.4-1.9,0L2.9,11.6c-0.3,0.2-0.3,0.7-0.1,0.9l0.5,0.6c0.2,0.3,0.7,0.3,0.9,0.1
	l1.1-0.9v10.9c0,0.5,0.4,0.8,0.8,0.8h4.2c0.5,0,0.8-0.4,0.8-0.8v-7.1c0-0.3,0.2-0.5,0.5-0.5h4.7c0.3,0,0.5,0.2,0.5,0.5v7.1
	c0,0.5,0.4,0.8,0.8,0.8h4.2c0.5,0,0.8-0.4,0.8-0.8V12.3l1.1,0.9c0.3,0.2,0.7,0.2,0.9-0.1l0.5-0.6C25.5,12.2,25.5,11.8,25.2,11.6z"/>
</svg>
