<?xml version="1.0" encoding="utf-8"?>
<!-- Generator: Adobe Illustrator 21.1.0, SVG Export Plug-In . SVG Version: 6.00 Build 0)  -->
<svg version="1.1" id="Laag_1" xmlns="http://www.w3.org/2000/svg" xmlns:xlink="http://www.w3.org/1999/xlink" x="0px" y="0px"
	 viewBox="0 0 22.5 25" style="enable-background:new 0 0 22.5 25;" xml:space="preserve">
<g>
	<g>
		<path d="M8.7,22.1h5.1v0.4c0,1.4-1.1,2.5-2.5,2.5h0c-1.4,0-2.5-1.1-2.5-2.5V22.1z"/>
		<path d="M21.4,17.4h-0.8c-0.9,0-1-1.1-1-1.6v-5.6c0-4.1-3-7.5-6.9-8.2c0,0,0-0.1,0-0.1C12.7,0.4,12,0,11.2,0S9.8,0.4,9.8,1.8
			c0,0,0,0.1,0,0.1c-3.9,0.7-6.9,4.1-6.9,8.2v5.6c0,0.6-0.2,1.6-1,1.6H1c-0.6,0-1,0.5-1,1v1.2c0,0.6,0.5,1,1,1h10.4h0.9h9.1
			c0.6,0,1-0.5,1-1v-1.2C22.5,17.9,22,17.4,21.4,17.4z"/>
	</g>
</g>
</svg>
