<?xml version="1.0" encoding="utf-8"?>
<!-- Generator: Adobe Illustrator 21.1.0, SVG Export Plug-In . SVG Version: 6.00 Build 0)  -->
<svg version="1.1" id="Laag_1" xmlns="http://www.w3.org/2000/svg" xmlns:xlink="http://www.w3.org/1999/xlink" x="0px" y="0px"
	 viewBox="0 0 17.5 17.5" style="enable-background:new 0 0 17.5 17.5;" xml:space="preserve">
<style type="text/css">
	.st0{fill:#FFFFFF;}
</style>
<g>
	<path class="st0" d="M15.5,17.5c-0.5,0-1-0.2-1.4-0.6L0.7,3.5c-0.8-0.8-0.8-2,0-2.8s2-0.8,2.8,0l13.4,13.4c0.8,0.8,0.8,2,0,2.8
		C16.5,17.3,16,17.5,15.5,17.5z"/>
</g>
<g>
	<path class="st0" d="M2,17.4c-0.5,0-1-0.2-1.4-0.6c-0.8-0.8-0.8-2,0-2.8L14,0.6c0.8-0.8,2-0.8,2.8,0s0.8,2,0,2.8L3.4,16.8
		C3,17.2,2.5,17.4,2,17.4z"/>
</g>
</svg>
