<svg id="Laag_1" xmlns="http://www.w3.org/2000/svg" xmlns:xlink="http://www.w3.org/1999/xlink" viewBox="0 0 36.5 32"><style>.st0{clip-path:url(#SVGID_3_)}.st1{clip-path:url(#SVGID_4_)}.st2{clip-path:url(#SVGID_7_)}.st3{clip-path:url(#SVGID_8_)}.st4{fill:#ed1c25}.st5{clip-path:url(#SVGID_10_)}.st6{clip-path:url(#SVGID_12_);fill:#ed1c25}</style><defs><path id="SVGID_1_" d="M24.8 2.6c2.8 0 4.9.6 6.8 2.6 1.9 2 2.4 4.5 2.3 7.3-.1 3.8-2.4 7.3-5.9 10.3-3.5 3.1-8.5 6.7-9.8 6.7-1.3 0-6.3-3.7-9.8-6.7-3.5-3-5.8-6.5-5.9-10.3 0-2.8.5-5.4 2.4-7.3 1.9-2 4.1-2.6 6.8-2.6 2.6 0 5.1 1.8 6.2 3.3.1.1.2.1.2.1.1 0 .2 0 .2-.1 1.2-1.5 3.6-3.3 6.5-3.3m0-2.1c-2.7 0-5 1.2-6.7 2.6-1.7-1.5-4-2.6-6.4-2.6-3.6 0-6.1 1-8.3 3.2-2.1 2.1-3 5-2.9 8.7.1 4.1 2.3 8.1 6.6 11.8 1.8 1.6 4 3.3 5.9 4.6 3.2 2.3 4.4 2.6 5.2 2.6.8 0 2-.3 5.2-2.6 1.9-1.3 4.1-3 5.9-4.6 4.3-3.7 6.5-7.7 6.6-11.8.1-3.8-.8-6.6-2.9-8.8C30.9 1.5 28.4.5 24.8.5"/></defs><defs><path id="SVGID_2_" d="M18.3 32c-1 0-2.4-.5-5.5-2.7-1.9-1.3-4.1-3.1-5.9-4.7C2.4 20.8.1 16.7 0 12.5c-.1-3.9.9-6.9 3-9.1C5.3 1 8 0 11.7 0c2.2 0 4.5.9 6.4 2.5 1.3-1 3.6-2.5 6.6-2.5 3.7 0 6.4 1 8.7 3.4 2.2 2.2 3.1 5.2 3 9.1-.1 4.2-2.4 8.3-6.8 12.2-1.8 1.6-4.1 3.4-6 4.7-3 2.1-4.3 2.6-5.3 2.6zM11.7 1c-3.4 0-5.9.9-7.9 3.1-2 2-2.9 4.8-2.8 8.4.1 4 2.3 7.8 6.4 11.4 1.8 1.6 4 3.3 5.9 4.6 3.1 2.2 4.3 2.5 5 2.5.7 0 1.8-.3 4.9-2.5 1.9-1.3 4.1-3 5.9-4.6 4.2-3.6 6.3-7.5 6.4-11.4.1-3.6-.8-6.4-2.8-8.4-2-2.2-4.5-3.1-7.9-3.1-3 0-5.2 1.6-6.3 2.5l-.3.3-.3-.3C16 1.9 13.8 1 11.7 1zm6.6 28.9c-1.6 0-7-4.1-10.1-6.8-3.9-3.4-6-7-6.1-10.7-.1-3.3.7-5.8 2.4-7.6C6.4 2.9 8.5 2 11.7 2c2.6 0 5.1 1.6 6.4 3.3C19.5 3.6 22 2 24.8 2c3.2 0 5.3.8 7.2 2.8 1.8 1.8 2.6 4.2 2.5 7.6-.1 3.6-2.1 7.2-6.1 10.7-3.2 2.8-8.6 6.8-10.1 6.8zM11.7 3.1c-2.9 0-4.8.7-6.5 2.4C3.7 7.1 3 9.3 3.1 12.4c.1 3.4 2 6.7 5.7 9.9 3.8 3.3 8.5 6.6 9.5 6.6s5.7-3.3 9.5-6.6c3.7-3.2 5.6-6.6 5.7-9.9.1-3.1-.6-5.3-2.2-6.9-1.7-1.7-3.6-2.4-6.5-2.4-2.5 0-4.9 1.6-6 3.1-.3.4-.9.4-1.2 0-1.2-1.5-3.5-3.1-5.9-3.1z"/></defs><use xlink:href="#SVGID_1_" overflow="visible" fill-rule="evenodd" clip-rule="evenodd" fill="#ed1c25"/><use xlink:href="#SVGID_2_" overflow="visible" fill="#ed1c25"/><clipPath id="SVGID_3_"><use xlink:href="#SVGID_1_" overflow="visible"/></clipPath><clipPath id="SVGID_4_" class="st0"><use xlink:href="#SVGID_2_" overflow="visible"/></clipPath><g class="st1"><defs><path id="SVGID_5_" d="M-327.5-570.5h375v667h-375z"/></defs><defs><path id="SVGID_6_" d="M48 97h-376v-668H48V97zm-375-1H47v-666h-374V96z"/></defs><use xlink:href="#SVGID_5_" overflow="visible" fill="#ed1c25"/><use xlink:href="#SVGID_6_" overflow="visible" fill="#ed1c25"/><clipPath id="SVGID_7_"><use xlink:href="#SVGID_5_" overflow="visible"/></clipPath><clipPath id="SVGID_8_" class="st2"><use xlink:href="#SVGID_6_" overflow="visible"/></clipPath><g class="st3"><path class="st4" d="M-4.5-4.5H41v41H-4.5z"/><path class="st4" d="M41.5 37H-5V-5h46.5v42zM-4 36h44.5V-4H-4v40z"/></g></g><defs><path id="SVGID_9_" d="M23.7 6.4c-2.7 0-4.9 1.9-5.4 4.5 0 .1-.1.1-.1 0-.5-2.6-2.7-4.5-5.4-4.5-3 0-6.1 2.5-6.1 5.5 0 1.5-.1 4.1 3.4 7.2 3.7 3.3 7.2 5.3 7.9 5.8.1.1.3.1.4 0 .7-.6 4.2-2.6 7.9-5.8 3.5-3.1 3.3-5.7 3.4-7.2.1-3-3-5.5-6-5.5"/></defs><use xlink:href="#SVGID_9_" overflow="visible" fill-rule="evenodd" clip-rule="evenodd" fill="#ed1c25"/><clipPath id="SVGID_10_"><use xlink:href="#SVGID_9_" overflow="visible"/></clipPath><g class="st5"><defs><path id="SVGID_11_" d="M-327.5-570.5h375v667h-375z"/></defs><use xlink:href="#SVGID_11_" overflow="visible" fill="#ed1c25"/><clipPath id="SVGID_12_"><use xlink:href="#SVGID_11_" overflow="visible"/></clipPath><path class="st6" d="M1.7 1.4h33V30h-33z"/></g></svg>