<?xml version="1.0" encoding="utf-8"?>
<!-- Generator: Adobe Illustrator 21.1.0, SVG Export Plug-In . SVG Version: 6.00 Build 0)  -->
<svg version="1.1" id="Laag_1" xmlns="http://www.w3.org/2000/svg" xmlns:xlink="http://www.w3.org/1999/xlink" x="0px" y="0px"
	 viewBox="0 0 36.5 32" style="enable-background:new 0 0 36.5 32;" xml:space="preserve">
<style type="text/css">
	.st0{clip-path:url(#SVGID_3_);}
	.st1{clip-path:url(#SVGID_4_);}
	.st2{clip-path:url(#SVGID_7_);}
	.st3{clip-path:url(#SVGID_8_);}
	.st4{fill:#ED1C25;}
	.st5{clip-path:url(#SVGID_10_);}
	.st6{clip-path:url(#SVGID_12_);fill:#ED1C25;}
</style>
<g>
	<defs>
		<path id="SVGID_1_" d="M24.8,2.6c2.8,0,4.9,0.6,6.8,2.6c1.9,2,2.4,4.5,2.3,7.3c-0.1,3.8-2.4,7.3-5.9,10.3
			c-3.5,3.1-8.5,6.7-9.8,6.7c-1.3,0-6.3-3.7-9.8-6.7c-3.5-3-5.8-6.5-5.9-10.3C2.5,9.7,3,7.1,4.9,5.2c1.9-2,4.1-2.6,6.8-2.6
			c2.6,0,5.1,1.8,6.2,3.3C18,6,18.1,6,18.1,6c0.1,0,0.2,0,0.2-0.1C19.5,4.4,21.9,2.6,24.8,2.6 M24.8,0.5c-2.7,0-5,1.2-6.7,2.6
			c-1.7-1.5-4-2.6-6.4-2.6c-3.6,0-6.1,1-8.3,3.2c-2.1,2.1-3,5-2.9,8.7c0.1,4.1,2.3,8.1,6.6,11.8c1.8,1.6,4,3.3,5.9,4.6
			c3.2,2.3,4.4,2.6,5.2,2.6c0.8,0,2-0.3,5.2-2.6c1.9-1.3,4.1-3,5.9-4.6c4.3-3.7,6.5-7.7,6.6-11.8c0.1-3.8-0.8-6.6-2.9-8.8
			C30.9,1.5,28.4,0.5,24.8,0.5"/>
	</defs>
	<defs>
		<path id="SVGID_2_" d="M18.3,32c-1,0-2.4-0.5-5.5-2.7c-1.9-1.3-4.1-3.1-5.9-4.7C2.4,20.8,0.1,16.7,0,12.5c-0.1-3.9,0.9-6.9,3-9.1
			C5.3,1,8,0,11.7,0c2.2,0,4.5,0.9,6.4,2.5c1.3-1,3.6-2.5,6.6-2.5c3.7,0,6.4,1,8.7,3.4c2.2,2.2,3.1,5.2,3,9.1
			c-0.1,4.2-2.4,8.3-6.8,12.2c-1.8,1.6-4.1,3.4-6,4.7C20.6,31.5,19.3,32,18.3,32z M11.7,1C8.3,1,5.8,1.9,3.8,4.1
			c-2,2-2.9,4.8-2.8,8.4c0.1,4,2.3,7.8,6.4,11.4c1.8,1.6,4,3.3,5.9,4.6c3.1,2.2,4.3,2.5,5,2.5c0.7,0,1.8-0.3,4.9-2.5
			c1.9-1.3,4.1-3,5.9-4.6c4.2-3.6,6.3-7.5,6.4-11.4c0.1-3.6-0.8-6.4-2.8-8.4C30.7,1.9,28.2,1,24.8,1c-3,0-5.2,1.6-6.3,2.5l-0.3,0.3
			l-0.3-0.3C16,1.9,13.8,1,11.7,1z M18.3,29.9c-1.6,0-7-4.1-10.1-6.8c-3.9-3.4-6-7-6.1-10.7C2,9.1,2.8,6.6,4.5,4.8
			c1.9-1.9,4-2.8,7.2-2.8c2.6,0,5.1,1.6,6.4,3.3c1.4-1.7,3.9-3.3,6.7-3.3c3.2,0,5.3,0.8,7.2,2.8c1.8,1.8,2.6,4.2,2.5,7.6
			c-0.1,3.6-2.1,7.2-6.1,10.7C25.2,25.9,19.8,29.9,18.3,29.9z M11.7,3.1c-2.9,0-4.8,0.7-6.5,2.4C3.7,7.1,3,9.3,3.1,12.4
			c0.1,3.4,2,6.7,5.7,9.9c3.8,3.3,8.5,6.6,9.5,6.6c1,0,5.7-3.3,9.5-6.6c3.7-3.2,5.6-6.6,5.7-9.9c0.1-3.1-0.6-5.3-2.2-6.9
			c-1.7-1.7-3.6-2.4-6.5-2.4c-2.5,0-4.9,1.6-6,3.1c-0.3,0.4-0.9,0.4-1.2,0C16.4,4.7,14.1,3.1,11.7,3.1z"/>
	</defs>
	<use xlink:href="#SVGID_1_"  style="overflow:visible;fill-rule:evenodd;clip-rule:evenodd;fill:#ED1C25;"/>
	<use xlink:href="#SVGID_2_"  style="overflow:visible;fill:#ED1C25;"/>
	<clipPath id="SVGID_3_">
		<use xlink:href="#SVGID_1_"  style="overflow:visible;"/>
	</clipPath>
	<clipPath id="SVGID_4_" class="st0">
		<use xlink:href="#SVGID_2_"  style="overflow:visible;"/>
	</clipPath>
	<g class="st1">
		<defs>
			<rect id="SVGID_5_" x="-327.5" y="-570.5" width="375" height="667"/>
		</defs>
		<defs>
			<path id="SVGID_6_" d="M48,97h-376v-668H48V97z M-327,96H47v-666h-374V96z"/>
		</defs>
		<use xlink:href="#SVGID_5_"  style="overflow:visible;fill:#ED1C25;"/>
		<use xlink:href="#SVGID_6_"  style="overflow:visible;fill:#ED1C25;"/>
		<clipPath id="SVGID_7_">
			<use xlink:href="#SVGID_5_"  style="overflow:visible;"/>
		</clipPath>
		<clipPath id="SVGID_8_" class="st2">
			<use xlink:href="#SVGID_6_"  style="overflow:visible;"/>
		</clipPath>
		<g class="st3">
			<rect x="-4.5" y="-4.5" class="st4" width="45.5" height="41"/>
			<path class="st4" d="M41.5,37H-5V-5h46.5V37z M-4,36h44.5V-4H-4V36z"/>
		</g>
	</g>
</g>
<g>
	<defs>
		<path id="SVGID_9_" d="M23.7,6.4c-2.7,0-4.9,1.9-5.4,4.5c0,0.1-0.1,0.1-0.1,0c-0.5-2.6-2.7-4.5-5.4-4.5c-3,0-6.1,2.5-6.1,5.5
			c0,1.5-0.1,4.1,3.4,7.2c3.7,3.3,7.2,5.3,7.9,5.8c0.1,0.1,0.3,0.1,0.4,0c0.7-0.6,4.2-2.6,7.9-5.8c3.5-3.1,3.3-5.7,3.4-7.2
			C29.8,8.9,26.7,6.4,23.7,6.4"/>
	</defs>
	<use xlink:href="#SVGID_9_"  style="overflow:visible;fill-rule:evenodd;clip-rule:evenodd;fill:#ED1C25;"/>
	<clipPath id="SVGID_10_">
		<use xlink:href="#SVGID_9_"  style="overflow:visible;"/>
	</clipPath>
	<g class="st5">
		<defs>
			<rect id="SVGID_11_" x="-327.5" y="-570.5" width="375" height="667"/>
		</defs>
		<use xlink:href="#SVGID_11_"  style="overflow:visible;fill:#ED1C25;"/>
		<clipPath id="SVGID_12_">
			<use xlink:href="#SVGID_11_"  style="overflow:visible;"/>
		</clipPath>
		<rect x="1.7" y="1.4" class="st6" width="33" height="28.6"/>
	</g>
</g>
</svg>
