<?xml version="1.0" encoding="utf-8"?>
<!-- Generator: Adobe Illustrator 21.1.0, SVG Export Plug-In . SVG Version: 6.00 Build 0)  -->
<svg version="1.1" id="Laag_1" xmlns="http://www.w3.org/2000/svg" xmlns:xlink="http://www.w3.org/1999/xlink" x="0px" y="0px"
	 viewBox="0 0 21 27" style="enable-background:new 0 0 21 27;" xml:space="preserve">
<style type="text/css">
	.st0{fill:#ED1C24;}
</style>
<g>
	<g>
		<circle class="st0" cx="17.5" cy="3.5" r="3"/>
	</g>
	<g>
		<path class="st0" d="M17.5,7C15.6,7,14,5.4,14,3.5S15.6,0,17.5,0S21,1.6,21,3.5S19.4,7,17.5,7z M17.5,1C16.1,1,15,2.1,15,3.5
			S16.1,6,17.5,6S20,4.9,20,3.5S18.9,1,17.5,1z"/>
	</g>
</g>
<g>
	<g>
		<circle class="st0" cx="3.5" cy="13.5" r="3"/>
	</g>
	<g>
		<path class="st0" d="M3.5,17C1.6,17,0,15.4,0,13.5S1.6,10,3.5,10S7,11.6,7,13.5S5.4,17,3.5,17z M3.5,11C2.1,11,1,12.1,1,13.5
			S2.1,16,3.5,16S6,14.9,6,13.5S4.9,11,3.5,11z"/>
	</g>
</g>
<g>
	<g>
		<circle class="st0" cx="17.5" cy="23.5" r="3"/>
	</g>
	<g>
		<path class="st0" d="M17.5,27c-1.9,0-3.5-1.6-3.5-3.5s1.6-3.5,3.5-3.5s3.5,1.6,3.5,3.5S19.4,27,17.5,27z M17.5,21
			c-1.4,0-2.5,1.1-2.5,2.5s1.1,2.5,2.5,2.5s2.5-1.1,2.5-2.5S18.9,21,17.5,21z"/>
	</g>
</g>
<g>
	<polygon class="st0" points="16.9,24.3 1.8,13.5 16.9,2.7 18.1,4.3 5.2,13.5 18.1,22.7 	"/>
</g>
</svg>
