<?xml version="1.0" encoding="utf-8"?>
<!-- Generator: Adobe Illustrator 21.1.0, SVG Export Plug-In . SVG Version: 6.00 Build 0)  -->
<svg version="1.1" id="Laag_1" xmlns="http://www.w3.org/2000/svg" xmlns:xlink="http://www.w3.org/1999/xlink" x="0px" y="0px"
	 viewBox="0 0 223.7 223.8" style="enable-background:new 0 0 223.7 223.8;" xml:space="preserve">
<style type="text/css">
	.st0{fill:#FFFFFF;}
	.st1{fill:#ED1C24;}
</style>
<circle class="st0" cx="111.8" cy="112" r="111.8"/>
<path class="st0" d="M115.8,0.1c0,0-15.2-1.1-29.8,3c3.3,21,25.8,220.7,25.8,220.7s8.7,0,14.3-0.8C125.3,204.8,115.8,0.1,115.8,0.1z
	"/>
<path class="st1" d="M58.3,98.1l-7.8-26.2L47,67.6h11.9l-1.9,4.3l6.6,22l5-17L67,71.8l-3.5-4.2h11.8l-1.9,4.3l6.6,22l6.5-22
	l-3.6-4.3h8l-2,4.4l-7.7,26.1h-6.4l-5-17.1l-5,17.1H58.3z"/>
<path class="st1" d="M92.6,98.1l2.1-4.6v-13l-4.1-4.7h10v18.3l3.3,4H92.6z M97.5,66.2c1.8,0,3.2,1.5,3.2,3.3c0,1.8-1.4,3.2-3.2,3.2
	s-3.2-1.5-3.2-3.2C94.3,67.7,95.7,66.2,97.5,66.2z"/>
<g>
	<defs>
		<path id="XMLID_4_" d="M111.1,96.6l-4.6,1.9v-8l4.2,2.6c3.3,2,5.8,2.9,8,2.9c2.5,0,3.5-1,3.5-2.6c0-1.7-1.5-2.7-6.2-4
			c-6.4-1.6-9.6-4.2-9.6-8.1c0-4.1,3.3-6.3,7.8-6.3c2.6,0,5.3,0.7,7.5,2.1l4-1.8v7.7l-3.5-2.7c-2.6-1.9-5.3-2.9-7.8-2.9
			c-1.9,0-2.8,0.8-2.8,2.2c0,1.7,1.2,2.6,5.5,3.7c7.7,1.9,10.5,4.2,10.5,8.1c0,4.4-3.5,6.9-8.7,6.9
			C115.9,98.5,113.2,97.8,111.1,96.6z"/>
	</defs>
	<use xlink:href="#XMLID_4_"  style="overflow:visible;fill:#ED1C24;"/>
	<clipPath id="XMLID_2_">
		<use xlink:href="#XMLID_4_"  style="overflow:visible;"/>
	</clipPath>
</g>
<path class="st1" d="M138.2,98.5c-3.8,0-5.9-2.4-5.9-6.9V79.1h-3.6v-3.3h3.6l1.8-7.2h4.1v7.2h4.8v3.3h-4.8v11.7c0,3.4,1.1,4.8,3,4.8
	c0.8,0,1.4-0.3,2.1-0.8l0.4,0.4C142.6,97.2,140.9,98.5,138.2,98.5z"/>
<path class="st1" d="M46.7,156.5c0-1.7,1.1-2.5,2.7-2.5c1.3,0,2.6,0.8,3.8,0.8c1.7,0,2.8-0.8,2.8-2.2c0-2-2.5-3.7-6.6-4l1.6-3.8V132
	l-4.1-4.7h10v20.9c1.2,1.1,2.3,2.7,2.3,4.8c0,3.5-2.9,6.3-8,6.3C48.2,159.2,46.7,158.1,46.7,156.5z M53.9,117.8
	c1.7,0,3.1,1.4,3.1,3.2c0,1.7-1.4,3.1-3.1,3.1c-1.7,0-3.1-1.4-3.1-3.1C50.8,119.2,52.2,117.8,53.9,117.8z"/>
<path class="st1" d="M73.3,150.1c-7,0-11.5-4.6-11.5-11.9c0-7.3,5-11.6,11.4-11.6c6.5,0,10.1,4.2,9.8,11.8H68
	c0.5,5.7,3.5,8.4,8.2,8.4c2.4,0,4.5-0.6,7.1-3.2l0.4,0.3C81.6,148,77.9,150.1,73.3,150.1z M67.9,136.3h9.7c0-5.3-1.6-7.2-4.4-7.2
	C70.5,129.1,68.1,131.3,67.9,136.3z"/>
<path class="st1" d="M114,144.9c-1.2,3.1-4,5.1-7.9,5.1c-5.1,0-9.3-4.1-9.3-11.9V138c0-7.6,4.2-11.5,9.3-11.5c3.3,0,5.8,1.5,7.3,3.9
	v-7.7l-4.1-4.7h10v27.6l3.3,3.9H114V144.9z M113.5,143.3v-10c-1.1-2-2.9-3-4.8-3c-3.5,0-5.5,2.9-5.5,7.7v0.2c0,4.9,2,8.1,5.5,8.1
	C110.6,146.3,112.4,145.3,113.5,143.3z"/>
<path class="st1" d="M139,147.1c-1.3,1.7-3.6,2.9-6.9,2.9c-4.5,0-7.3-2.5-7.3-6.1c0-3.5,2.9-5.3,6.1-6.1c2.3-0.7,5.3-0.9,7.7-0.9v-2
	c0-4.4-1.5-6.4-4.4-6.4c-2.4,0-3.7,1.3-3.8,4.1c0,1.8-1,2.7-2.3,2.7c-1.4,0-2.6-0.9-2.6-2.9c0-3.9,4.7-6.1,9.7-6.1
	c5.3,0,9.4,2.5,9.4,8.7v8.7c0,1.7,0.8,2.3,1.8,2.3c0.3,0,0.6,0,0.8-0.2l0.3,0.2c-0.4,2.1-1.8,3.4-4.3,3.4
	C140.9,149.6,139.6,148.5,139,147.1z M138.6,144.7v-5.9c-2,0.1-4.2,0.5-5.5,1.1c-1.6,0.8-2.3,1.9-2.3,3.6c0,2.1,1.2,3.7,3.8,3.7
	C136.4,147.2,138,146.3,138.6,144.7z"/>
<path class="st1" d="M157.3,150c-3.8,0-5.9-2.4-5.9-6.9v-12.5h-3.6v-3.3h3.6l1.8-7.2h4.1v7.2h4.8v3.3h-4.8v11.7c0,3.4,1.1,4.8,3,4.8
	c0.8,0,1.4-0.3,2.1-0.8l0.4,0.4C161.8,148.7,160.1,150,157.3,150z"/>
<path class="st1" d="M166.4,146.8c0-1.7,1.4-3.2,3.1-3.2c1.7,0,3.1,1.4,3.1,3.2c0,1.7-1.3,3.1-3.1,3.1
	C167.8,150,166.4,148.5,166.4,146.8z"/>
<path class="st1" d="M176.5,146.8c0-1.7,1.4-3.2,3.1-3.2c1.7,0,3.1,1.4,3.1,3.2c0,1.7-1.3,3.1-3.1,3.1
	C177.9,150,176.5,148.5,176.5,146.8z"/>
<path class="st1" d="M186.7,146.8c0-1.7,1.4-3.2,3.1-3.2c1.7,0,3.1,1.4,3.1,3.2c0,1.7-1.3,3.1-3.1,3.1
	C188.1,150,186.7,148.5,186.7,146.8z"/>
</svg>
