<svg id="Laag_1" xmlns="http://www.w3.org/2000/svg" xmlns:xlink="http://www.w3.org/1999/xlink" viewBox="0 0 223.7 223.8"><style>.st0{fill:#fff}.st1{fill:#ed1c24}</style><circle class="st0" cx="111.8" cy="112" r="111.8"/><path class="st0" d="M115.8.1S100.6-1 86 3.1c3.3 21 25.8 220.7 25.8 220.7s8.7 0 14.3-.8C125.3 204.8 115.8.1 115.8.1z"/><path class="st1" d="M58.3 98.1l-7.8-26.2-3.5-4.3h11.9L57 71.9l6.6 22 5-17-1.6-5.1-3.5-4.2h11.8l-1.9 4.3 6.6 22 6.5-22-3.6-4.3h8l-2 4.4-7.7 26.1h-6.4l-5-17.1-5 17.1h-6.5zm34.3 0l2.1-4.6v-13l-4.1-4.7h10v18.3l3.3 4H92.6zm4.9-31.9c1.8 0 3.2 1.5 3.2 3.3 0 1.8-1.4 3.2-3.2 3.2s-3.2-1.5-3.2-3.2c0-1.8 1.4-3.3 3.2-3.3z"/><defs><path id="XMLID_4_" d="M111.1 96.6l-4.6 1.9v-8l4.2 2.6c3.3 2 5.8 2.9 8 2.9 2.5 0 3.5-1 3.5-2.6 0-1.7-1.5-2.7-6.2-4-6.4-1.6-9.6-4.2-9.6-8.1 0-4.1 3.3-6.3 7.8-6.3 2.6 0 5.3.7 7.5 2.1l4-1.8V83l-3.5-2.7c-2.6-1.9-5.3-2.9-7.8-2.9-1.9 0-2.8.8-2.8 2.2 0 1.7 1.2 2.6 5.5 3.7 7.7 1.9 10.5 4.2 10.5 8.1 0 4.4-3.5 6.9-8.7 6.9-3 .2-5.7-.5-7.8-1.7z"/></defs><use xlink:href="#XMLID_4_" overflow="visible" fill="#ed1c24"/><clipPath id="XMLID_2_"><use xlink:href="#XMLID_4_" overflow="visible"/></clipPath><path class="st1" d="M138.2 98.5c-3.8 0-5.9-2.4-5.9-6.9V79.1h-3.6v-3.3h3.6l1.8-7.2h4.1v7.2h4.8v3.3h-4.8v11.7c0 3.4 1.1 4.8 3 4.8.8 0 1.4-.3 2.1-.8l.4.4c-1.1 2-2.8 3.3-5.5 3.3zm-91.5 58c0-1.7 1.1-2.5 2.7-2.5 1.3 0 2.6.8 3.8.8 1.7 0 2.8-.8 2.8-2.2 0-2-2.5-3.7-6.6-4l1.6-3.8V132l-4.1-4.7h10v20.9c1.2 1.1 2.3 2.7 2.3 4.8 0 3.5-2.9 6.3-8 6.3-3-.1-4.5-1.2-4.5-2.8zm7.2-38.7c1.7 0 3.1 1.4 3.1 3.2 0 1.7-1.4 3.1-3.1 3.1-1.7 0-3.1-1.4-3.1-3.1 0-1.8 1.4-3.2 3.1-3.2zm19.4 32.3c-7 0-11.5-4.6-11.5-11.9 0-7.3 5-11.6 11.4-11.6 6.5 0 10.1 4.2 9.8 11.8H68c.5 5.7 3.5 8.4 8.2 8.4 2.4 0 4.5-.6 7.1-3.2l.4.3c-2.1 4.1-5.8 6.2-10.4 6.2zm-5.4-13.8h9.7c0-5.3-1.6-7.2-4.4-7.2-2.7 0-5.1 2.2-5.3 7.2zm46.1 8.6c-1.2 3.1-4 5.1-7.9 5.1-5.1 0-9.3-4.1-9.3-11.9v-.1c0-7.6 4.2-11.5 9.3-11.5 3.3 0 5.8 1.5 7.3 3.9v-7.7l-4.1-4.7h10v27.6l3.3 3.9H114v-4.6zm-.5-1.6v-10c-1.1-2-2.9-3-4.8-3-3.5 0-5.5 2.9-5.5 7.7v.2c0 4.9 2 8.1 5.5 8.1 1.9 0 3.7-1 4.8-3zm25.5 3.8c-1.3 1.7-3.6 2.9-6.9 2.9-4.5 0-7.3-2.5-7.3-6.1 0-3.5 2.9-5.3 6.1-6.1 2.3-.7 5.3-.9 7.7-.9v-2c0-4.4-1.5-6.4-4.4-6.4-2.4 0-3.7 1.3-3.8 4.1 0 1.8-1 2.7-2.3 2.7-1.4 0-2.6-.9-2.6-2.9 0-3.9 4.7-6.1 9.7-6.1 5.3 0 9.4 2.5 9.4 8.7v8.7c0 1.7.8 2.3 1.8 2.3.3 0 .6 0 .8-.2l.3.2c-.4 2.1-1.8 3.4-4.3 3.4-2.3.2-3.6-.9-4.2-2.3zm-.4-2.4v-5.9c-2 .1-4.2.5-5.5 1.1-1.6.8-2.3 1.9-2.3 3.6 0 2.1 1.2 3.7 3.8 3.7 1.8 0 3.4-.9 4-2.5zm18.7 5.3c-3.8 0-5.9-2.4-5.9-6.9v-12.5h-3.6v-3.3h3.6l1.8-7.2h4.1v7.2h4.8v3.3h-4.8v11.7c0 3.4 1.1 4.8 3 4.8.8 0 1.4-.3 2.1-.8l.4.4c-1 2-2.7 3.3-5.5 3.3zm9.1-3.2c0-1.7 1.4-3.2 3.1-3.2 1.7 0 3.1 1.4 3.1 3.2 0 1.7-1.3 3.1-3.1 3.1-1.7.1-3.1-1.4-3.1-3.1zm10.1 0c0-1.7 1.4-3.2 3.1-3.2 1.7 0 3.1 1.4 3.1 3.2 0 1.7-1.3 3.1-3.1 3.1-1.7.1-3.1-1.4-3.1-3.1zm10.2 0c0-1.7 1.4-3.2 3.1-3.2 1.7 0 3.1 1.4 3.1 3.2 0 1.7-1.3 3.1-3.1 3.1-1.7.1-3.1-1.4-3.1-3.1z"/></svg>